<?xml version="1.0" ?><svg viewBox="0 0 512 512" xmlns="http://www.w3.org/2000/svg" xmlns:xlink="http://www.w3.org/1999/xlink"><defs><style>.cls-1{fill:url(#New_Gradient_Swatch_copy);}.cls-2{fill:#fff;}.cls-3{fill:#3f48a0;}</style><linearGradient gradientUnits="userSpaceOnUse" id="New_Gradient_Swatch_copy" x1="196.07" x2="326.49" y1="207.25" y2="366.66"><stop offset="0" stop-color="#e0a3ff"/><stop offset="1" stop-color="#75baff"/></linearGradient></defs><title/><g id="USB"><path class="cls-1" d="M209.44,202.47h93.13A34.47,34.47,0,0,1,337,236.95v74.29A70.79,70.79,0,0,1,266.25,382H245.75A70.79,70.79,0,0,1,175,311.23V236.95A34.47,34.47,0,0,1,209.44,202.47Z"/><path class="cls-2" d="M220.7,130H291.3a19.56,19.56,0,0,1,19.56,19.56v52.94a0,0,0,0,1,0,0H201.14a0,0,0,0,1,0,0V149.54A19.56,19.56,0,0,1,220.7,130Z"/><path class="cls-3" d="M175,287.26a8.06,8.06,0,0,1-8.05-8.05v-8.59a8,8,0,1,1,16.1,0v8.59A8.05,8.05,0,0,1,175,287.26Z"/><path class="cls-3" d="M260.53,390.07h-9.06c-38.85,0-71.56-22.64-81.41-56.34a78.1,78.1,0,0,1-2.45-11.7,83.84,83.84,0,0,1-.7-10.8V306a8,8,0,1,1,16.1,0v5.19a67.66,67.66,0,0,0,.56,8.71,61.74,61.74,0,0,0,2,9.27C193.46,356.4,219.35,374,251.47,374h9.06c30.67,0,56.2-16.45,65.05-41.92a61.7,61.7,0,0,0,2.1-7.65,8,8,0,1,1,15.77,3.24,77.44,77.44,0,0,1-2.66,9.69C329.65,369.37,298.15,390.07,260.53,390.07Z"/><path class="cls-3" d="M337,307.11a8,8,0,0,1-8.05-8.05v-7.47a8.05,8.05,0,0,1,16.1,0v7.47A8.05,8.05,0,0,1,337,307.11Z"/><path class="cls-3" d="M236,147.94a8,8,0,0,0-8,8.05v20.47a8.05,8.05,0,0,0,16.1,0V156A8.05,8.05,0,0,0,236,147.94Z"/><path class="cls-3" d="M276,147.94a8.05,8.05,0,0,0-8.05,8.05v20.47a8.05,8.05,0,0,0,16.1,0V156A8,8,0,0,0,276,147.94Z"/><path class="cls-3" d="M282,245.84a8.05,8.05,0,0,0-8,8v20L263.39,279V242.66a8.05,8.05,0,0,0-16.1,0v57.59L238,295.93V272.67a8.05,8.05,0,0,0-16.1,0v28.39a8,8,0,0,0,4.64,7.29L247.29,318v15.38a8,8,0,1,0,16.1,0V296.8l22.1-10.56a8,8,0,0,0,4.58-7.26V253.89A8,8,0,0,0,282,245.84Z"/><path class="cls-3" d="M318.91,197.7V149.54a27.63,27.63,0,0,0-27.61-27.61H220.7a27.63,27.63,0,0,0-27.61,27.61V197.7A42.58,42.58,0,0,0,166.91,237v7.37a8,8,0,1,0,16.1,0V237a26.46,26.46,0,0,1,26.43-26.43h93.12A26.46,26.46,0,0,1,329,237v29.42a8,8,0,1,0,16.1,0V237A42.58,42.58,0,0,0,318.91,197.7Zm-109.47-3.28h-.25V149.54A11.52,11.52,0,0,1,220.7,138h70.6a11.52,11.52,0,0,1,11.51,11.51v44.88H209.44Z"/></g></svg>